<svg width="146" height="39" viewBox="0 0 146 39" fill="none" xmlns="http://www.w3.org/2000/svg">
<path d="M23.1707 17.7191C23.132 13.5292 26.6893 11.4908 26.852 11.3959C24.8373 8.53203 21.7147 8.14073 20.6173 8.10953C17.9947 7.84043 15.4507 9.63963 14.1147 9.63963C12.752 9.63963 10.6947 8.13553 8.47734 8.17973C5.624 8.22263 2.95467 9.83333 1.49067 12.3345C-1.53066 17.4344 0.722672 24.9289 3.61734 29.0512C5.06534 31.0701 6.75734 33.3243 8.97201 33.245C11.1387 33.1579 11.948 31.8982 14.5627 31.8982C17.1533 31.8982 17.9133 33.245 20.172 33.1943C22.4973 33.1579 23.9613 31.1663 25.3587 29.1292C27.032 26.8152 27.704 24.5363 27.7307 24.4193C27.676 24.4011 23.2147 22.741 23.1707 17.7191Z" fill="white"/>
<path d="M18.904 5.39773C20.0693 3.97683 20.8667 2.04373 20.6453 0.0820312C18.9587 0.154831 16.8493 1.21953 15.6347 2.60923C14.56 3.83383 13.6 5.84103 13.848 7.72863C15.7427 7.86643 17.688 6.79653 18.904 5.39773Z" fill="white"/>
<path d="M54.5267 32.9552H51.4987L49.84 27.8735H44.0747L42.4947 32.9552H39.5467L45.2587 15.6548H48.7867L54.5267 32.9552ZM49.34 25.7415L47.84 21.224C47.6813 20.7625 47.384 19.6757 46.9453 17.9649H46.892C46.7173 18.7007 46.436 19.7875 46.0493 21.224L44.576 25.7415H49.34Z" fill="white"/>
<path d="M69.216 26.5647C69.216 28.6863 68.628 30.3633 67.452 31.5944C66.3987 32.6903 65.0907 33.2376 63.5293 33.2376C61.844 33.2376 60.6333 32.6474 59.896 31.467H59.8427V38.0385H57V24.5874C57 23.2536 56.964 21.8847 56.8947 20.4807H59.3947L59.5533 22.458H59.6067C60.5547 20.9682 61.9933 20.2246 63.924 20.2246C65.4333 20.2246 66.6933 20.8057 67.7013 21.9692C68.712 23.134 69.216 24.6654 69.216 26.5647ZM66.32 26.6661C66.32 25.4519 66.04 24.4509 65.4773 23.6631C64.8627 22.8415 64.0373 22.4307 63.0027 22.4307C62.3013 22.4307 61.664 22.6595 61.0947 23.1106C60.524 23.5656 60.1506 24.1597 59.976 24.8955C59.888 25.2387 59.844 25.5195 59.844 25.7405V27.8205C59.844 28.7279 60.1293 29.4936 60.7 30.1189C61.2707 30.7442 62.012 31.0562 62.924 31.0562C63.9947 31.0562 64.828 30.6532 65.424 29.8498C66.0213 29.0451 66.32 27.9843 66.32 26.6661Z" fill="white"/>
<path d="M83.932 26.5647C83.932 28.6863 83.344 30.3633 82.1667 31.5944C81.1147 32.6903 79.8067 33.2376 78.2453 33.2376C76.56 33.2376 75.3493 32.6474 74.6133 31.467H74.56V38.0385H71.7173V24.5874C71.7173 23.2536 71.6813 21.8847 71.612 20.4807H74.112L74.2707 22.458H74.324C75.2707 20.9682 76.7093 20.2246 78.6413 20.2246C80.1493 20.2246 81.4093 20.8057 82.42 21.9692C83.4267 23.134 83.932 24.6654 83.932 26.5647ZM81.036 26.6661C81.036 25.4519 80.7547 24.4509 80.192 23.6631C79.5773 22.8415 78.7547 22.4307 77.7187 22.4307C77.016 22.4307 76.38 22.6595 75.8093 23.1106C75.2387 23.5656 74.8667 24.1597 74.692 24.8955C74.6053 25.2387 74.56 25.5195 74.56 25.7405V27.8205C74.56 28.7279 74.8453 29.4936 75.4133 30.1189C75.984 30.7429 76.7253 31.0562 77.64 31.0562C78.7107 31.0562 79.544 30.6532 80.14 29.8498C80.7373 29.0451 81.036 27.9843 81.036 26.6661Z" fill="white"/>
<path d="M100.385 28.1037C100.385 29.5753 99.8613 30.7726 98.8093 31.6969C97.6533 32.707 96.044 33.2114 93.976 33.2114C92.0667 33.2114 90.536 32.8526 89.3773 32.1337L90.036 29.8236C91.284 30.5594 92.6533 30.9286 94.1453 30.9286C95.216 30.9286 96.0493 30.692 96.648 30.2214C97.244 29.7508 97.5413 29.119 97.5413 28.3312C97.5413 27.6292 97.296 27.0377 96.804 26.558C96.3147 26.0783 95.4973 25.6324 94.356 25.2203C91.2493 24.0906 89.6973 22.4357 89.6973 20.2595C89.6973 18.8373 90.2413 17.6712 91.3307 16.7638C92.416 15.8551 93.864 15.4014 95.6747 15.4014C97.2893 15.4014 98.6307 15.6757 99.7013 16.223L98.9906 18.4824C97.9906 17.952 96.86 17.6868 95.5947 17.6868C94.5947 17.6868 93.8133 17.9273 93.2533 18.4057C92.78 18.8334 92.5427 19.3547 92.5427 19.9722C92.5427 20.656 92.8133 21.2215 93.3573 21.6661C93.8307 22.0769 94.6907 22.5215 95.9387 23.0012C97.4653 23.6005 98.5867 24.3012 99.308 25.1046C100.027 25.9054 100.385 26.9077 100.385 28.1037Z" fill="white"/>
<path d="M109.784 22.5604H106.651V28.6171C106.651 30.1576 107.203 30.9272 108.309 30.9272C108.817 30.9272 109.239 30.8843 109.572 30.7985L109.651 32.9032C109.091 33.1073 108.353 33.21 107.44 33.21C106.317 33.21 105.44 32.8759 104.807 32.209C104.176 31.5408 103.859 30.4202 103.859 28.8459V22.5578H101.992V20.4778H103.859V18.1937L106.651 17.3721V20.4778H109.784V22.5604Z" fill="white"/>
<path d="M123.921 26.6151C123.921 28.5326 123.359 30.1069 122.236 31.338C121.059 32.6055 119.496 33.2373 117.548 33.2373C115.671 33.2373 114.176 32.6302 113.061 31.416C111.947 30.2018 111.389 28.6691 111.389 26.8218C111.389 24.8887 111.963 23.3053 113.113 22.0742C114.261 20.8418 115.811 20.2256 117.759 20.2256C119.636 20.2256 121.147 20.8327 122.287 22.0482C123.377 23.2273 123.921 24.7496 123.921 26.6151ZM120.972 26.7048C120.972 25.5543 120.72 24.5676 120.209 23.7447C119.613 22.7489 118.761 22.2523 117.657 22.2523C116.515 22.2523 115.647 22.7502 115.051 23.7447C114.54 24.5689 114.288 25.5712 114.288 26.7568C114.288 27.9073 114.54 28.894 115.051 29.7156C115.665 30.7114 116.524 31.208 117.632 31.208C118.717 31.208 119.569 30.701 120.184 29.6896C120.708 28.8511 120.972 27.854 120.972 26.7048Z" fill="white"/>
<path d="M133.161 22.9182C132.88 22.8675 132.58 22.8415 132.265 22.8415C131.265 22.8415 130.492 23.2094 129.948 23.9465C129.475 24.5965 129.237 25.4181 129.237 26.41V32.9555H126.396L126.423 24.4093C126.423 22.9715 126.387 21.6624 126.316 20.482H128.792L128.896 22.8688H128.975C129.275 22.0485 129.748 21.3881 130.396 20.8928C131.029 20.4469 131.713 20.2246 132.451 20.2246C132.713 20.2246 132.951 20.2428 133.161 20.2753V22.9182Z" fill="white"/>
<path d="M145.875 26.1279C145.875 26.6245 145.841 27.0431 145.771 27.385H137.243C137.276 28.6174 137.688 29.5599 138.48 30.2099C139.199 30.791 140.128 31.0822 141.269 31.0822C142.532 31.0822 143.684 30.8859 144.72 30.492L145.165 32.416C143.955 32.9308 142.525 33.1869 140.876 33.1869C138.892 33.1869 137.335 32.6175 136.201 31.48C135.071 30.3425 134.504 28.815 134.504 26.8988C134.504 25.0177 135.031 23.4512 136.085 22.2019C137.189 20.8681 138.681 20.2012 140.559 20.2012C142.403 20.2012 143.799 20.8681 144.747 22.2019C145.497 23.2614 145.875 24.5718 145.875 26.1279ZM143.164 25.409C143.183 24.5874 142.997 23.8776 142.612 23.2783C142.12 22.5074 141.364 22.1226 140.347 22.1226C139.417 22.1226 138.661 22.4983 138.084 23.2523C137.611 23.8516 137.329 24.5705 137.243 25.4077H143.164V25.409Z" fill="white"/>
<path d="M48.4 5.0118C48.4 6.5419 47.9294 7.6937 46.9894 8.4672C46.1187 9.1809 44.8814 9.5384 43.2787 9.5384C42.484 9.5384 41.804 9.5046 41.2347 9.437V1.0767C41.9773 0.959702 42.7773 0.899902 43.6413 0.899902C45.168 0.899902 46.3187 1.2236 47.0947 1.871C47.964 2.6029 48.4 3.6494 48.4 5.0118ZM46.9267 5.0495C46.9267 4.0576 46.6574 3.2971 46.1187 2.7667C45.58 2.2376 44.7934 1.9724 43.7574 1.9724C43.3174 1.9724 42.9427 2.001 42.632 2.0608V8.4165C42.804 8.4425 43.1187 8.4542 43.576 8.4542C44.6454 8.4542 45.4707 8.1643 46.052 7.5845C46.6334 7.0047 46.9267 6.1597 46.9267 5.0495Z" fill="white"/>
<path d="M56.212 6.34816C56.212 7.29066 55.936 8.06286 55.384 8.66866C54.8054 9.29136 54.0387 9.60206 53.0814 9.60206C52.1587 9.60206 51.424 9.30436 50.876 8.70636C50.3294 8.10966 50.056 7.35696 50.056 6.44956C50.056 5.50056 50.3374 4.72186 50.9027 4.11736C51.468 3.51286 52.228 3.20996 53.1854 3.20996C54.108 3.20996 54.8494 3.50766 55.4107 4.10436C55.944 4.68416 56.212 5.43296 56.212 6.34816ZM54.7627 6.39236C54.7627 5.82686 54.6374 5.34196 54.388 4.93766C54.0947 4.44886 53.6774 4.20446 53.1347 4.20446C52.5734 4.20446 52.1467 4.44886 51.8534 4.93766C51.6027 5.34196 51.4787 5.83466 51.4787 6.41706C51.4787 6.98256 51.604 7.46746 51.8534 7.87176C52.156 8.36056 52.5774 8.60496 53.1214 8.60496C53.6547 8.60496 54.0734 8.35666 54.3747 7.85876C54.6334 7.44666 54.7627 6.95786 54.7627 6.39236Z" fill="white"/>
<path d="M66.6867 3.33496L64.72 9.46316H63.44L62.6253 6.80206C62.4187 6.13776 62.2507 5.47736 62.12 4.82216H62.0947C61.9733 5.49556 61.8053 6.15466 61.5893 6.80206L60.724 9.46316H59.4293L57.58 3.33496H59.016L59.7267 6.24826C59.8987 6.93726 60.04 7.59376 60.1533 8.21516H60.1787C60.2827 7.70296 60.4547 7.05036 60.6973 6.26126L61.5893 3.33626H62.728L63.5827 6.19886C63.7893 6.89696 63.9573 7.56906 64.0867 8.21646H64.1253C64.22 7.58596 64.3627 6.91386 64.552 6.19886L65.3147 3.33626H66.6867V3.33496Z" fill="white"/>
<path d="M73.9307 9.46296H72.5333V5.95296C72.5333 4.87136 72.112 4.33055 71.2667 4.33055C70.852 4.33055 70.5173 4.47876 70.2574 4.77646C70 5.07416 69.8694 5.42516 69.8694 5.82686V9.46166H68.472V5.08586C68.472 4.54766 68.4547 3.96396 68.4214 3.33215H69.6494L69.7147 4.29026H69.7534C69.916 3.99256 70.1587 3.74686 70.4774 3.55056C70.856 3.32176 71.28 3.20605 71.744 3.20605C72.3307 3.20605 72.8187 3.39065 73.2067 3.76115C73.6893 4.21486 73.9307 4.89216 73.9307 5.79176V9.46296Z" fill="white"/>
<path d="M77.784 9.46305H76.388V0.522949H77.784V9.46305Z" fill="white"/>
<path d="M86.0107 6.34816C86.0107 7.29066 85.7347 8.06286 85.1827 8.66866C84.604 9.29136 83.836 9.60206 82.88 9.60206C81.956 9.60206 81.2214 9.30436 80.6747 8.70636C80.128 8.10966 79.8547 7.35696 79.8547 6.44956C79.8547 5.50056 80.136 4.72186 80.7014 4.11736C81.2667 3.51286 82.0267 3.20996 82.9827 3.20996C83.9067 3.20996 84.6467 3.50766 85.2094 4.10436C85.7427 4.68416 86.0107 5.43296 86.0107 6.34816ZM84.56 6.39236C84.56 5.82686 84.4347 5.34196 84.1854 4.93766C83.8934 4.44886 83.4747 4.20446 82.9334 4.20446C82.3707 4.20446 81.944 4.44886 81.652 4.93766C81.4014 5.34196 81.2774 5.83466 81.2774 6.41706C81.2774 6.98256 81.4027 7.46746 81.652 7.87176C81.9547 8.36056 82.376 8.60496 82.92 8.60496C83.4534 8.60496 83.8707 8.35666 84.172 7.85876C84.432 7.44666 84.56 6.95786 84.56 6.39236Z" fill="white"/>
<path d="M92.7734 9.46296H91.5187L91.4147 8.75706H91.376C90.9467 9.31996 90.3347 9.60206 89.54 9.60206C88.9467 9.60206 88.4667 9.41616 88.1054 9.04696C87.7774 8.71156 87.6134 8.29426 87.6134 7.79896C87.6134 7.05016 87.9334 6.47946 88.5774 6.08426C89.22 5.68906 90.124 5.49536 91.288 5.50446V5.39006C91.288 4.58276 90.8534 4.17976 89.9827 4.17976C89.3627 4.17976 88.816 4.33186 88.344 4.63346L88.06 3.73906C88.644 3.38676 89.3654 3.20996 90.216 3.20996C91.8587 3.20996 92.6827 4.05496 92.6827 5.74496V8.00176C92.6827 8.61406 92.7134 9.10156 92.7734 9.46296ZM91.3227 7.35696V6.41186C89.7814 6.38586 89.0107 6.79796 89.0107 7.64686C89.0107 7.96666 89.0987 8.20586 89.2787 8.36576C89.4587 8.52566 89.688 8.60496 89.9614 8.60496C90.268 8.60496 90.5547 8.51006 90.816 8.32156C91.0787 8.13176 91.24 7.89126 91.3 7.59616C91.3147 7.52986 91.3227 7.44926 91.3227 7.35696Z" fill="white"/>
<path d="M100.713 9.46305H99.4734L99.408 8.47895H99.3694C98.9734 9.22775 98.2987 9.60215 97.3507 9.60215C96.5934 9.60215 95.9627 9.31225 95.4627 8.73245C94.9627 8.15265 94.7134 7.39995 94.7134 6.47565C94.7134 5.48375 94.984 4.68035 95.528 4.06675C96.0547 3.49475 96.7 3.20875 97.468 3.20875C98.312 3.20875 98.9027 3.48565 99.2387 4.04075H99.2653V0.522949H100.664V7.81205C100.664 8.40875 100.68 8.95865 100.713 9.46305ZM99.2653 6.87865V5.85685C99.2653 5.68005 99.252 5.53705 99.2267 5.42785C99.148 5.10025 98.9787 4.82465 98.7214 4.60235C98.4614 4.38005 98.148 4.26825 97.7867 4.26825C97.2654 4.26825 96.8574 4.46975 96.5574 4.87405C96.26 5.27835 96.1094 5.79445 96.1094 6.42495C96.1094 7.03075 96.252 7.52215 96.5387 7.90045C96.8414 8.30345 97.2494 8.50495 97.76 8.50495C98.2187 8.50495 98.5854 8.33725 98.864 8.00055C99.1334 7.68985 99.2653 7.31545 99.2653 6.87865Z" fill="white"/>
<path d="M112.664 6.34816C112.664 7.29066 112.388 8.06286 111.836 8.66866C111.257 9.29136 110.492 9.60206 109.533 9.60206C108.612 9.60206 107.877 9.30436 107.328 8.70636C106.781 8.10966 106.508 7.35696 106.508 6.44956C106.508 5.50056 106.789 4.72186 107.355 4.11736C107.92 3.51286 108.68 3.20996 109.639 3.20996C110.56 3.20996 111.303 3.50766 111.863 4.10436C112.396 4.68416 112.664 5.43296 112.664 6.34816ZM111.216 6.39236C111.216 5.82686 111.091 5.34196 110.841 4.93766C110.547 4.44886 110.131 4.20446 109.587 4.20446C109.027 4.20446 108.6 4.44886 108.305 4.93766C108.055 5.34196 107.931 5.83466 107.931 6.41706C107.931 6.98256 108.056 7.46746 108.305 7.87176C108.608 8.36056 109.029 8.60496 109.573 8.60496C110.107 8.60496 110.527 8.35666 110.828 7.85876C111.085 7.44666 111.216 6.95786 111.216 6.39236Z" fill="white"/>
<path d="M120.177 9.46296H118.781V5.95296C118.781 4.87136 118.36 4.33055 117.513 4.33055C117.099 4.33055 116.764 4.47876 116.505 4.77646C116.247 5.07416 116.117 5.42516 116.117 5.82686V9.46166H114.719V5.08586C114.719 4.54766 114.703 3.96396 114.669 3.33215H115.896L115.961 4.29026H116C116.164 3.99256 116.407 3.74686 116.724 3.55056C117.104 3.32176 117.527 3.20605 117.992 3.20605C118.577 3.20605 119.065 3.39065 119.453 3.76115C119.937 4.21486 120.177 4.89216 120.177 5.79176V9.46296Z" fill="white"/>
<path d="M129.581 4.35529H128.043V7.33229C128.043 8.08889 128.316 8.46719 128.857 8.46719C129.108 8.46719 129.316 8.44639 129.48 8.40349L129.516 9.43699C129.24 9.53839 128.877 9.58909 128.431 9.58909C127.879 9.58909 127.449 9.42529 127.139 9.09769C126.827 8.77009 126.672 8.21889 126.672 7.44539V4.35529H125.753V3.33479H126.672V2.21159L128.041 1.80859V3.33349H129.58V4.35529H129.581Z" fill="white"/>
<path d="M136.979 9.46305H135.58V5.97905C135.58 4.88055 135.159 4.33065 134.315 4.33065C133.667 4.33065 133.224 4.64915 132.981 5.28615C132.94 5.42005 132.916 5.58385 132.916 5.77625V9.46175H131.52V0.522949H132.916V4.21625H132.943C133.383 3.54415 134.013 3.20875 134.831 3.20875C135.409 3.20875 135.888 3.39335 136.268 3.76385C136.741 4.22535 136.979 4.91175 136.979 5.81915V9.46305Z" fill="white"/>
<path d="M144.609 6.10894C144.609 6.35334 144.591 6.55874 144.557 6.72644H140.367C140.385 7.33224 140.585 7.79374 140.973 8.11354C141.328 8.39954 141.785 8.54254 142.345 8.54254C142.965 8.54254 143.531 8.44634 144.04 8.25264L144.259 9.19904C143.663 9.45124 142.961 9.57734 142.149 9.57734C141.176 9.57734 140.409 9.29784 139.855 8.73884C139.297 8.17984 139.021 7.42974 139.021 6.48854C139.021 5.56424 139.279 4.79464 139.797 4.18104C140.339 3.52584 141.071 3.19824 141.995 3.19824C142.899 3.19824 143.585 3.52584 144.049 4.18104C144.424 4.70104 144.609 5.34454 144.609 6.10894ZM143.276 5.75664C143.287 5.35234 143.195 5.00394 143.005 4.71014C142.763 4.33184 142.393 4.14204 141.893 4.14204C141.437 4.14204 141.065 4.32664 140.781 4.69714C140.549 4.99224 140.412 5.34454 140.367 5.75664H143.276Z" fill="white"/>
</svg>
