<svg width="32" height="20" viewBox="0 0 32 20" fill="none" xmlns="http://www.w3.org/2000/svg">
<path d="M25.641 6.66649C24.8961 6.66129 24.1863 6.78628 23.5214 7.02586L21.8768 4.16656H25.9959C26.6607 4.16656 27.1956 3.60928 27.1956 2.91659V1.24997C27.1956 0.557277 26.6607 0 25.9959 0H23.7314C23.3915 0 23.0665 0.151038 22.8416 0.411448L20.967 2.58327L19.8272 0.604151C19.6073 0.229161 19.2174 0 18.7975 0H14.7983C14.3584 0 13.9985 0.37499 13.9985 0.833312V1.66662C13.9985 2.12494 14.3584 2.49994 14.7983 2.49994H18.1176L19.0774 4.16656H11.3941C10.5093 2.96346 9.14956 2.08328 6.40017 2.08328H3.62577C2.95092 2.08328 2.38604 2.65618 2.40104 3.35929C2.41104 4.03635 2.94592 4.58321 3.60078 4.58321H6.40017C7.6249 4.58321 8.33474 5.15091 8.78964 5.87485L8.22477 6.94253C7.57491 6.73941 6.88006 6.64566 6.16022 6.6717C2.79595 6.7967 0.0815478 9.66642 0.00156528 13.1767C-0.0784172 16.9319 2.81595 19.9995 6.40017 19.9995C9.37951 19.9995 11.884 17.8745 12.5988 14.9996H16.8079C17.4927 14.9996 18.0376 14.4059 18.0076 13.6924C17.9027 11.2393 18.8824 8.81227 20.817 7.1821L21.4419 8.26541C20.0622 9.49975 19.1874 11.333 19.2024 13.3799C19.2274 17.0048 22.0617 19.9682 25.541 19.9995C29.1202 20.0359 32.0296 17.0048 31.9996 13.2757C31.9646 9.65079 29.1202 6.69253 25.641 6.66649ZM6.40017 17.4995C4.19565 17.4995 2.40104 15.6298 2.40104 13.333C2.40104 11.0362 4.19565 9.16643 6.40017 9.16643C6.61012 9.16643 6.82007 9.18205 7.02503 9.21851L4.95048 13.1455C4.51058 13.9788 5.09045 14.9996 6.00025 14.9996H10.0644C9.4445 16.4683 8.03481 17.4995 6.40017 17.4995ZM29.5901 13.5621C29.4801 15.6767 27.8405 17.385 25.8159 17.4943C23.5114 17.6245 21.5968 15.7079 21.5968 13.333C21.5968 12.2184 22.0168 11.208 22.7016 10.4633L25.1711 14.7548C25.396 15.1506 25.8909 15.2756 26.2708 15.0413L26.9557 14.6142C27.3356 14.3798 27.4556 13.8642 27.2306 13.4684L24.8011 9.25497C25.0611 9.19768 25.326 9.17164 25.596 9.17164C27.8755 9.16643 29.7101 11.1612 29.5901 13.5621Z" fill="black"/>
</svg>
