<svg width="31" height="22" viewBox="0 0 31 22" fill="none" xmlns="http://www.w3.org/2000/svg">
<path d="M19.5307 4.375H17.1921L16.5421 2.75C15.8741 1.0793 14.28 0 12.4803 0H7.5194C5.72018 0 4.12564 1.0793 3.45728 2.75L2.80728 4.375H0.468999C0.163921 4.375 -0.0599078 4.66172 0.0143111 4.95742L0.248686 5.89492C0.30064 6.10352 0.48814 6.25 0.703375 6.25H1.48736C0.96275 6.7082 0.624859 7.37422 0.624859 8.125V10C0.624859 10.6297 0.865484 11.198 1.24986 11.6379V13.75C1.24986 14.4402 1.80963 15 2.49986 15H3.74986C4.4401 15 4.99986 14.4402 4.99986 13.75V12.5H14.9999V13.75C14.9999 14.4402 15.5596 15 16.2499 15H17.4999C18.1901 15 18.7499 14.4402 18.7499 13.75V11.6379C19.1343 11.1984 19.3749 10.6301 19.3749 10V8.125C19.3749 7.37422 19.037 6.7082 18.5128 6.25H19.2968C19.512 6.25 19.6995 6.10352 19.7514 5.89492L19.9858 4.95742C20.0597 4.66172 19.8358 4.375 19.5307 4.375ZM5.77838 3.67852C6.06315 2.9668 6.7526 2.5 7.5194 2.5H12.4803C13.2471 2.5 13.9366 2.9668 14.2214 3.67852L14.9999 5.625H4.99986L5.77838 3.67852ZM3.74986 9.99219C2.99986 9.99219 2.49986 9.49375 2.49986 8.74609C2.49986 7.99844 2.99986 7.5 3.74986 7.5C4.49986 7.5 5.62487 8.62148 5.62487 9.36914C5.62487 10.1168 4.49986 9.99219 3.74986 9.99219ZM16.2499 9.99219C15.4999 9.99219 14.3749 10.1168 14.3749 9.36914C14.3749 8.62148 15.4999 7.5 16.2499 7.5C16.9999 7.5 17.4999 7.99844 17.4999 8.74609C17.4999 9.49375 16.9999 9.99219 16.2499 9.99219Z" fill="black"/>
<path d="M26.6283 12.6666C26.1162 12.6629 25.6282 12.7504 25.1711 12.9181L24.0404 10.9166H26.8723C27.3294 10.9166 27.6971 10.5265 27.6971 10.0416V8.87499C27.6971 8.3901 27.3294 8 26.8723 8H25.3154C25.0817 8 24.8583 8.10573 24.7037 8.28802L23.4149 9.8083L22.6313 8.42291C22.4801 8.16041 22.212 8 21.9233 8H19.1739C18.8715 8 18.6241 8.2625 18.6241 8.58332V9.16665C18.6241 9.48748 18.8715 9.74997 19.1739 9.74997H21.4559L22.1158 10.9166H16.8335C16.2252 10.0744 15.2904 9.45831 13.4002 9.45831H11.4928C11.0288 9.45831 10.6404 9.85934 10.6508 10.3515C10.6576 10.8255 11.0254 11.2083 11.4756 11.2083H13.4002C14.2422 11.2083 14.7302 11.6057 15.0429 12.1124L14.6546 12.8598C14.2078 12.7176 13.7301 12.652 13.2352 12.6702C10.9223 12.7577 9.0561 14.7666 9.00111 17.2238C8.94612 19.8524 10.936 21.9998 13.4002 21.9998C15.4485 21.9998 17.1703 20.5123 17.6618 18.4998H20.5555C21.0264 18.4998 21.401 18.0842 21.3803 17.5847C21.3082 15.8676 21.9818 14.1686 23.3118 13.0275L23.7414 13.7858C22.7928 14.6499 22.1914 15.9332 22.2017 17.366C22.2189 19.9035 24.1676 21.9779 26.5595 21.9998C29.0203 22.0253 31.0205 19.9035 30.9998 17.2931C30.9758 14.7556 29.0203 12.6848 26.6283 12.6666ZM13.4002 20.2498C11.8846 20.2498 10.6508 18.941 10.6508 17.3332C10.6508 15.7254 11.8846 14.4166 13.4002 14.4166C13.5445 14.4166 13.6889 14.4275 13.8298 14.453L12.4035 17.2019C12.1011 17.7853 12.4997 18.4998 13.1252 18.4998H15.9193C15.4932 19.5279 14.524 20.2498 13.4002 20.2498ZM29.3433 17.4936C29.2677 18.9738 28.1405 20.1696 26.7486 20.2462C25.1642 20.3373 23.8479 18.9957 23.8479 17.3332C23.8479 16.553 24.1366 15.8457 24.6075 15.3244L26.3052 18.3285C26.4599 18.6056 26.8001 18.6931 27.0613 18.529L27.5321 18.23C27.7933 18.066 27.8758 17.7051 27.7212 17.428L26.0509 14.4785C26.2296 14.4384 26.4118 14.4202 26.5973 14.4202C28.1645 14.4166 29.4258 15.8129 29.3433 17.4936Z" fill="#F9B233"/>
</svg>
