<svg width="26" height="20" viewBox="0 0 26 20" fill="none" xmlns="http://www.w3.org/2000/svg">
<path d="M25.3903 5.83333H22.35L21.505 3.66667C20.6366 1.43906 18.5643 0 16.2248 0H9.77554C7.43656 0 5.36367 1.43906 4.4948 3.66667L3.6498 5.83333H0.610034C0.213432 5.83333 -0.0775443 6.21562 0.0189401 6.6099L0.323628 7.8599C0.391167 8.13802 0.634917 8.33333 0.914721 8.33333H1.9339C1.25191 8.94427 0.812651 9.83229 0.812651 10.8333V13.3333C0.812651 14.1729 1.12546 14.9307 1.62515 15.5172V18.3333C1.62515 19.2536 2.35285 20 3.25015 20H4.87515C5.77246 20 6.50015 19.2536 6.50015 18.3333V16.6667H19.5002V18.3333C19.5002 19.2536 20.2278 20 21.1252 20H22.7502C23.6475 20 24.3752 19.2536 24.3752 18.3333V15.5172C24.8748 14.9312 25.1877 14.1734 25.1877 13.3333V10.8333C25.1877 9.83229 24.7484 8.94427 24.0669 8.33333H25.0861C25.3659 8.33333 25.6096 8.13802 25.6772 7.8599L25.9819 6.6099C26.0778 6.21562 25.7869 5.83333 25.3903 5.83333ZM7.51222 4.90469C7.88242 3.95573 8.77871 3.33333 9.77554 3.33333H16.2248C17.2216 3.33333 18.1179 3.95573 18.4881 4.90469L19.5002 7.5H6.50015L7.51222 4.90469ZM4.87515 13.3229C3.90015 13.3229 3.25015 12.6583 3.25015 11.6615C3.25015 10.6646 3.90015 10 4.87515 10C5.85015 10 7.31265 11.4953 7.31265 12.4922C7.31265 13.4891 5.85015 13.3229 4.87515 13.3229ZM21.1252 13.3229C20.1502 13.3229 18.6877 13.4891 18.6877 12.4922C18.6877 11.4953 20.1502 10 21.1252 10C22.1002 10 22.7502 10.6646 22.7502 11.6615C22.7502 12.6583 22.1002 13.3229 21.1252 13.3229Z" fill="black"/>
</svg>
