<svg width="13" height="17" viewBox="0 0 13 17" fill="none" xmlns="http://www.w3.org/2000/svg">
<g clip-path="url(#clip0_49_610)">
<path d="M7.30234 16.6178C9.03906 14.4807 13 9.30093 13 6.39148C13 2.86285 10.0885 0 6.5 0C2.91146 0 0 2.86285 0 6.39148C0 9.30093 3.96094 14.4807 5.69766 16.6178C6.11406 17.1272 6.88594 17.1272 7.30234 16.6178ZM6.5 4.26099C7.69674 4.26099 8.66667 5.21471 8.66667 6.39148C8.66667 7.56824 7.69674 8.52197 6.5 8.52197C5.30326 8.52197 4.33333 7.56824 4.33333 6.39148C4.33333 5.21471 5.30326 4.26099 6.5 4.26099Z" fill="black"/>
</g>
<defs>
<clipPath id="clip0_49_610">
<rect width="13" height="17" fill="white"/>
</clipPath>
</defs>
</svg>
