<svg width="22" height="22" viewBox="0 0 22 22" fill="none" xmlns="http://www.w3.org/2000/svg">
<path d="M19.6429 0H2.35714C1.05531 0 0 1.05531 0 2.35714V19.6429C0 20.9447 1.05531 22 2.35714 22H9.0971V14.5205H6.00335V11H9.0971V8.31679C9.0971 5.26478 10.9141 3.57893 13.697 3.57893C15.0297 3.57893 16.4234 3.81661 16.4234 3.81661V6.81214H14.8878C13.3748 6.81214 12.9029 7.75107 12.9029 8.71406V11H16.2805L15.7403 14.5205H12.9029V22H19.6429C20.9447 22 22 20.9447 22 19.6429V2.35714C22 1.05531 20.9447 0 19.6429 0Z" fill="white"/>
</svg>
