<svg width="155" height="37" viewBox="0 0 155 37" fill="none" xmlns="http://www.w3.org/2000/svg">
<path d="M50.1364 5.31669C50.1364 6.40219 49.8036 7.27157 49.1478 7.91994C48.3938 8.68857 47.4118 9.07531 46.2085 9.07531C45.0584 9.07531 44.0764 8.68206 43.2709 7.90694C42.4636 7.12044 42.0609 6.15519 42.0609 4.99982C42.0609 3.84444 42.4636 2.87919 43.2709 2.09919C44.0764 1.31757 45.0584 0.924316 46.2085 0.924316C46.781 0.924316 47.327 1.03969 47.8479 1.25419C48.3672 1.47032 48.7899 1.76282 49.0962 2.12357L48.4005 2.80932C47.8662 2.19344 47.1389 1.88957 46.2085 1.88957C45.3697 1.88957 44.6423 2.17557 44.0248 2.75244C43.414 3.33094 43.1078 4.08007 43.1078 4.99982C43.1078 5.91957 43.414 6.67519 44.0248 7.25369C44.6423 7.82406 45.3697 8.11656 46.2085 8.11656C47.0989 8.11656 47.8479 7.82406 48.4388 7.24719C48.8282 6.86531 49.0496 6.33882 49.1078 5.66607H46.2085V4.72682H50.0765C50.1231 4.92994 50.1364 5.12657 50.1364 5.31669Z" fill="white" stroke="white" stroke-width="0.16" stroke-miterlimit="10"/>
<path d="M56.273 2.06015H52.6396V4.53015H55.9151V5.4694H52.6396V7.9394H56.273V8.89653H51.611V1.10303H56.273V2.06015Z" fill="white" stroke="white" stroke-width="0.16" stroke-miterlimit="10"/>
<path d="M60.6037 8.89653H59.5751V2.06015H57.3465V1.10303H62.8339V2.06015H60.6037V8.89653Z" fill="white" stroke="white" stroke-width="0.16" stroke-miterlimit="10"/>
<path d="M66.8051 8.89653V1.10303H67.8321V8.89653H66.8051Z" fill="white" stroke="white" stroke-width="0.16" stroke-miterlimit="10"/>
<path d="M72.3841 8.89653H71.3638V2.06015H69.1269V1.10303H74.621V2.06015H72.3841V8.89653Z" fill="white" stroke="white" stroke-width="0.16" stroke-miterlimit="10"/>
<path d="M85.0101 7.89394C84.2228 8.68207 83.2475 9.07531 82.0841 9.07531C80.9141 9.07531 79.9387 8.68207 79.1515 7.89394C78.3659 7.10744 77.9748 6.14219 77.9748 4.99982C77.9748 3.85744 78.3659 2.89219 79.1515 2.10569C79.9387 1.31757 80.9141 0.924316 82.0841 0.924316C83.2409 0.924316 84.2162 1.31757 85.0034 2.11219C85.7957 2.90519 86.1868 3.86394 86.1868 4.99982C86.1868 6.14219 85.7957 7.10744 85.0101 7.89394ZM79.9121 7.24069C80.5046 7.82407 81.2253 8.11656 82.0841 8.11656C82.9363 8.11656 83.6636 7.82407 84.2495 7.24069C84.8403 6.65732 85.1399 5.90819 85.1399 4.99982C85.1399 4.09144 84.8403 3.34232 84.2495 2.75894C83.6636 2.17557 82.9363 1.88307 82.0841 1.88307C81.2253 1.88307 80.5046 2.17557 79.9121 2.75894C79.3213 3.34232 79.0217 4.09144 79.0217 4.99982C79.0217 5.90819 79.3213 6.65732 79.9121 7.24069Z" fill="white" stroke="white" stroke-width="0.16" stroke-miterlimit="10"/>
<path d="M87.6298 8.89653V1.10303H88.8781L92.7594 7.16428H92.8043L92.7594 5.66603V1.10303H93.7863V8.89653H92.7145L88.6501 2.53628H88.6051L88.6501 4.04103V8.89653H87.6298Z" fill="white" stroke="white" stroke-width="0.16" stroke-miterlimit="10"/>
<path d="M77.7218 20.2783C74.5944 20.2783 72.0396 22.602 72.0396 25.8082C72.0396 28.9883 74.5944 31.3364 77.7218 31.3364C80.8558 31.3364 83.4106 28.9883 83.4106 25.8082C83.4106 22.602 80.8558 20.2783 77.7218 20.2783ZM77.7218 29.1589C76.0058 29.1589 74.5295 27.776 74.5295 25.8082C74.5295 23.8143 76.0058 22.4558 77.7218 22.4558C79.4377 22.4558 80.9207 23.8143 80.9207 25.8082C80.9207 27.776 79.4377 29.1589 77.7218 29.1589ZM65.3238 20.2783C62.1898 20.2783 59.6417 22.602 59.6417 25.8082C59.6417 28.9883 62.1898 31.3364 65.3238 31.3364C68.4562 31.3364 71.006 28.9883 71.006 25.8082C71.006 22.602 68.4562 20.2783 65.3238 20.2783ZM65.3238 29.1589C63.6062 29.1589 62.1249 27.776 62.1249 25.8082C62.1249 23.8143 63.6062 22.4558 65.3238 22.4558C67.0398 22.4558 68.5161 23.8143 68.5161 25.8082C68.5161 27.776 67.0398 29.1589 65.3238 29.1589ZM50.5708 21.9732V24.3229H56.3179C56.1498 25.6359 55.7004 26.6012 55.0114 27.2739C54.1725 28.0864 52.866 28.9883 50.5708 28.9883C47.034 28.9883 44.2645 26.2014 44.2645 22.7483C44.2645 19.2952 47.034 16.5083 50.5708 16.5083C52.4832 16.5083 53.8746 17.2379 54.9015 18.1837L56.5975 16.5278C55.1612 15.1888 53.2505 14.1602 50.5708 14.1602C45.7208 14.1602 41.6448 18.013 41.6448 22.7483C41.6448 27.4835 45.7208 31.3364 50.5708 31.3364C53.1922 31.3364 55.1612 30.4979 56.709 28.9249C58.2952 27.3763 58.7895 25.1988 58.7895 23.4405C58.7895 22.8945 58.7429 22.3924 58.6597 21.9732H50.5708ZM110.898 23.7948C110.43 22.5582 108.987 20.2783 106.048 20.2783C103.135 20.2783 100.71 22.5192 100.71 25.8082C100.71 28.9054 103.11 31.3364 106.327 31.3364C108.929 31.3364 110.43 29.7878 111.048 28.8859L109.117 27.6298C108.473 28.5495 107.596 29.1589 106.327 29.1589C105.067 29.1589 104.164 28.595 103.584 27.4835L111.159 24.4237L110.898 23.7948ZM103.175 25.6359C103.11 23.5039 104.871 22.4119 106.133 22.4119C107.121 22.4119 107.96 22.8945 108.24 23.5852L103.175 25.6359ZM97.0185 31H99.5084V14.75H97.0185V31ZM92.9408 21.51H92.8576C92.2984 20.8633 91.2315 20.2783 89.88 20.2783C87.0439 20.2783 84.4508 22.7093 84.4508 25.826C84.4508 28.9249 87.0439 31.3364 89.88 31.3364C91.2315 31.3364 92.2984 30.7465 92.8576 30.0803H92.9408V30.8733C92.9408 32.9874 91.7841 34.1233 89.9183 34.1233C88.3971 34.1233 87.4534 33.0508 87.0639 32.1489L84.8985 33.0313C85.5227 34.497 87.1754 36.3008 89.9183 36.3008C92.8376 36.3008 95.3009 34.6238 95.3009 30.5434V20.6147H92.9408V21.51ZM90.0931 29.1589C88.3771 29.1589 86.9407 27.7565 86.9407 25.826C86.9407 23.8777 88.3771 22.4558 90.0931 22.4558C91.7841 22.4558 93.1172 23.8777 93.1172 25.826C93.1172 27.7565 91.7841 29.1589 90.0931 29.1589ZM122.555 14.75H116.6V31H119.083V24.8429H122.555C125.313 24.8429 128.018 22.8945 128.018 19.7957C128.018 16.6984 125.306 14.75 122.555 14.75ZM122.62 22.5825H119.083V17.0104H122.62C124.474 17.0104 125.533 18.5135 125.533 19.7957C125.533 21.0534 124.474 22.5825 122.62 22.5825ZM137.97 20.2474C136.176 20.2474 134.311 21.0209 133.543 22.7353L135.747 23.6372C136.221 22.7353 137.093 22.4428 138.015 22.4428C139.304 22.4428 140.61 23.1984 140.63 24.5325V24.7032C140.181 24.4497 139.219 24.0743 138.035 24.0743C135.662 24.0743 133.244 25.3499 133.244 27.7305C133.244 29.908 135.188 31.3104 137.373 31.3104C139.044 31.3104 139.966 30.5743 140.545 29.7179H140.63V30.974H143.029V24.7405C143.029 21.8594 140.825 20.2474 137.97 20.2474ZM137.671 29.1524C136.859 29.1524 135.727 28.7592 135.727 27.776C135.727 26.5183 137.138 26.0357 138.36 26.0357C139.453 26.0357 139.966 26.2713 140.63 26.5817C140.435 28.0864 139.109 29.1524 137.671 29.1524ZM151.766 20.6033L148.912 27.6477H148.827L145.876 20.6033H143.198L147.632 30.4475L145.102 35.9254H147.697L154.529 20.6033H151.766ZM129.382 31H131.872V14.75H129.382V31Z" fill="white"/>
<path d="M0.894208 1.80044C0.50308 2.20019 0.276726 2.82257 0.276726 3.62857V32.3781C0.276726 33.1841 0.50308 33.8064 0.894208 34.2062L0.990742 34.2939L17.4914 18.1902V17.8099L0.990742 1.7062L0.894208 1.80044Z" fill="url(#paint0_linear_101_3)"/>
<path d="M22.9855 23.5605L17.4913 18.1899V17.8097L22.9921 12.439L23.1153 12.5089L29.6296 16.1278C31.4887 17.1548 31.4887 18.8448 29.6296 19.8783L23.1153 23.4907L22.9855 23.5605Z" fill="url(#paint1_linear_101_3)"/>
<path d="M23.1153 23.4907L17.4914 17.9998L0.894207 34.206C1.51169 34.8397 2.51864 34.9161 3.66373 34.2823L23.1153 23.4907Z" fill="url(#paint2_linear_101_3)"/>
<path d="M23.1153 12.5091L3.66373 1.71751C2.51864 1.09025 1.51169 1.16663 0.894207 1.80038L17.4914 18L23.1153 12.5091Z" fill="url(#paint3_linear_101_3)"/>
<defs>
<linearGradient id="paint0_linear_101_3" x1="16.0263" y1="32.6775" x2="-5.78456" y2="10.3381" gradientUnits="userSpaceOnUse">
<stop stop-color="#00A0FF"/>
<stop offset="0.0066" stop-color="#00A1FF"/>
<stop offset="0.2601" stop-color="#00BEFF"/>
<stop offset="0.5122" stop-color="#00D2FF"/>
<stop offset="0.7604" stop-color="#00DFFF"/>
<stop offset="1" stop-color="#00E3FF"/>
</linearGradient>
<linearGradient id="paint1_linear_101_3" x1="32.0505" y1="17.998" x2="-0.167674" y2="17.998" gradientUnits="userSpaceOnUse">
<stop stop-color="#FFE000"/>
<stop offset="0.4087" stop-color="#FFBD00"/>
<stop offset="0.7754" stop-color="#FFA500"/>
<stop offset="1" stop-color="#FF9C00"/>
</linearGradient>
<linearGradient id="paint2_linear_101_3" x1="20.0572" y1="15.0149" x2="-9.52015" y2="-15.2791" gradientUnits="userSpaceOnUse">
<stop stop-color="#FF3A44"/>
<stop offset="1" stop-color="#C31162"/>
</linearGradient>
<linearGradient id="paint3_linear_101_3" x1="-3.28364" y1="43.7709" x2="9.92395" y2="30.2434" gradientUnits="userSpaceOnUse">
<stop stop-color="#32A071"/>
<stop offset="0.0685" stop-color="#2DA771"/>
<stop offset="0.4762" stop-color="#15CF74"/>
<stop offset="0.8009" stop-color="#06E775"/>
<stop offset="1" stop-color="#00F076"/>
</linearGradient>
</defs>
</svg>
