<svg width="22" height="22" viewBox="0 0 22 22" fill="none" xmlns="http://www.w3.org/2000/svg">
<path d="M11.0026 5.35968C7.88117 5.35968 5.36338 7.87803 5.36338 11.0002C5.36338 14.1224 7.88117 16.6407 11.0026 16.6407C14.1241 16.6407 16.6419 14.1224 16.6419 11.0002C16.6419 7.87803 14.1241 5.35968 11.0026 5.35968ZM11.0026 14.6673C8.98546 14.6673 7.33638 13.0227 7.33638 11.0002C7.33638 8.97766 8.98055 7.33312 11.0026 7.33312C13.0247 7.33312 14.6689 8.97766 14.6689 11.0002C14.6689 13.0227 13.0198 14.6673 11.0026 14.6673ZM18.1874 5.12895C18.1874 5.8604 17.5985 6.44458 16.8721 6.44458C16.1457 6.44458 15.5568 5.85549 15.5568 5.12895C15.5568 4.40241 16.1457 3.81332 16.8721 3.81332C17.5985 3.81332 18.1874 4.40241 18.1874 5.12895ZM21.9224 6.46422C21.839 4.70186 21.4365 3.14078 20.1457 1.8546C18.8598 0.568425 17.2991 0.165391 15.5371 0.0775182C13.7212 -0.0260632 8.27871 -0.0260632 6.46276 0.0775182C4.70571 0.160972 3.14497 0.563516 1.85417 1.84969C0.563376 3.13587 0.165339 4.69695 0.0769954 6.45882C-0.026072 8.27518 -0.026072 13.7193 0.0769954 15.5357C0.160431 17.298 0.562885 18.8591 1.85368 20.1453C3.14448 21.4315 4.70031 21.834 6.46227 21.9224C8.27822 22.0255 13.7212 22.0255 15.5371 21.9224C17.2991 21.8389 18.8598 21.4364 20.1457 20.1453C21.4316 18.8591 21.8341 17.298 21.9224 15.5357C22.0255 13.7193 22.0255 8.28008 21.9224 6.46373V6.46422ZM19.5764 17.4851C19.1936 18.4473 18.4525 19.1885 17.4856 19.5763C16.0377 20.1507 12.6021 20.0182 11.0021 20.0182C9.40215 20.0182 5.96166 20.1458 4.51871 19.5763C3.55675 19.1934 2.81565 18.4522 2.42792 17.4851C1.85368 16.0369 1.9862 12.6006 1.9862 11.0002C1.9862 9.39984 1.85859 5.95858 2.42792 4.51532C2.81074 3.55314 3.55184 2.81187 4.51871 2.42405C5.96657 1.84969 9.40215 1.98224 11.0021 1.98224C12.6021 1.98224 16.0426 1.8546 17.4856 2.42405C18.4475 2.80696 19.1887 3.54823 19.5764 4.51532C20.1506 5.96349 20.0181 9.39984 20.0181 11.0002C20.0181 12.6006 20.1506 16.0418 19.5764 17.4851Z" fill="white"/>
</svg>
