<svg width="129" height="38" viewBox="0 0 129 38" fill="none" xmlns="http://www.w3.org/2000/svg">
<g clip-path="url(#clip0_7_802)">
<path d="M45.5478 18.9216L44.7418 16.2559H40.6862L39.8803 18.9216H37.3325L41.2582 7.68365H44.1439L48.0955 18.9216H45.5478ZM44.1829 14.2696C43.442 11.8522 43.013 10.4931 42.922 10.1795C42.831 9.86591 42.766 9.61763 42.714 9.43469C42.545 10.0881 42.0641 11.7084 41.2712 14.2827H44.1699L44.1829 14.2696Z" fill="black"/>
<path d="M58.5595 7.72284V14.9622C58.5595 15.7854 58.3776 16.5172 58.0136 17.1314C57.6496 17.7455 57.1167 18.229 56.4147 18.5688C55.7128 18.9085 54.8939 19.0653 53.945 19.0653C52.5151 19.0653 51.3972 18.6995 50.6043 17.9546C49.8114 17.2098 49.4214 16.2036 49.4214 14.923V7.72284H51.7742V14.5702C51.7742 15.4326 51.9432 16.0598 52.2941 16.4649C52.6451 16.87 53.217 17.066 54.01 17.066C54.8029 17.066 55.3358 16.857 55.6868 16.4519C56.0378 16.0468 56.2068 15.4065 56.2068 14.544V7.72284H58.5595Z" fill="black"/>
<path d="M65.5788 18.9216H63.213V9.70908H60.1843V7.7359H68.5945V9.70908H65.5658V18.9216H65.5788Z" fill="black"/>
<path d="M80.4235 13.3157C80.4235 15.1713 79.9686 16.5956 79.0587 17.5887C78.1488 18.5819 76.8359 19.0784 75.133 19.0784C73.4302 19.0784 72.1173 18.5819 71.2074 17.5887C70.2975 16.5956 69.8425 15.1582 69.8425 13.3026C69.8425 11.4471 70.2975 10.0227 71.2204 9.02959C72.1433 8.03647 73.4562 7.55298 75.159 7.55298C76.8619 7.55298 78.1748 8.04954 79.0847 9.04266C79.9946 10.0358 80.4495 11.4601 80.4495 13.3157H80.4235ZM72.2993 13.3157C72.2993 14.5702 72.5333 15.511 73.0012 16.1383C73.4692 16.7655 74.1841 17.0922 75.12 17.0922C77.0049 17.0922 77.9408 15.8377 77.9408 13.3157C77.9408 10.7937 77.0049 9.53922 75.133 9.53922C74.1971 9.53922 73.4822 9.85284 73.0142 10.4931C72.5463 11.1334 72.2993 12.0743 72.2993 13.3288V13.3157Z" fill="black"/>
<path d="M87.4429 18.9216L84.7651 10.1403H84.7001C84.7911 11.9305 84.8431 13.1197 84.8431 13.7208V18.9216H82.7373V7.72284H85.948L88.5868 16.282H88.6388L91.4335 7.72284H94.6442V18.9216H92.4474V13.6293C92.4474 13.381 92.4474 13.0935 92.4474 12.7669C92.4474 12.4402 92.4864 11.5777 92.5514 10.1664H92.4864L89.6137 18.9347H87.4559L87.4429 18.9216Z" fill="black"/>
<path d="M107.552 13.3157C107.552 15.1713 107.097 16.5956 106.187 17.5887C105.277 18.5819 103.964 19.0784 102.261 19.0784C100.559 19.0784 99.2457 18.5819 98.3358 17.5887C97.4259 16.5956 96.9709 15.1582 96.9709 13.3026C96.9709 11.4471 97.4259 10.0227 98.3488 9.02959C99.2717 8.03647 100.585 7.55298 102.287 7.55298C103.99 7.55298 105.303 8.04954 106.213 9.04266C107.123 10.0358 107.578 11.4601 107.578 13.3157H107.552ZM99.4277 13.3157C99.4277 14.5702 99.6617 15.511 100.13 16.1383C100.598 16.7655 101.313 17.0922 102.248 17.0922C104.133 17.0922 105.069 15.8377 105.069 13.3157C105.069 10.7937 104.133 9.53922 102.261 9.53922C101.326 9.53922 100.611 9.85284 100.143 10.4931C99.6747 11.1334 99.4277 12.0743 99.4277 13.3288V13.3157Z" fill="black"/>
<path d="M114.155 18.9216H111.79V9.70908H108.761V7.7359H117.171V9.70908H114.142V18.9216H114.155Z" fill="black"/>
<path d="M129 13.3157C129 15.1713 128.545 16.5956 127.635 17.5887C126.725 18.5819 125.412 19.0784 123.709 19.0784C122.007 19.0784 120.694 18.5819 119.784 17.5887C118.874 16.5956 118.419 15.1582 118.419 13.3026C118.419 11.4471 118.874 10.0227 119.797 9.02959C120.72 8.03647 122.033 7.55298 123.735 7.55298C125.438 7.55298 126.751 8.04954 127.661 9.04266C128.571 10.0358 129.026 11.4601 129.026 13.3157H129ZM120.876 13.3157C120.876 14.5702 121.11 15.511 121.578 16.1383C122.046 16.7655 122.761 17.0922 123.696 17.0922C125.581 17.0922 126.517 15.8377 126.517 13.3157C126.517 10.7937 125.581 9.53922 123.709 9.53922C122.774 9.53922 122.059 9.85284 121.591 10.4931C121.123 11.1334 120.876 12.0743 120.876 13.3288V13.3157Z" fill="black"/>
<path d="M78.3424 37.9143C75.6906 37.9143 74.3647 36.4508 74.3647 33.5237C74.3647 32.0732 74.7287 30.9625 75.4436 30.1915C76.1586 29.4205 77.1985 29.0416 78.5374 29.0416C79.5253 29.0416 80.4092 29.2376 81.1891 29.6296L80.5002 31.4329C80.1362 31.2892 79.7982 31.1585 79.4733 31.067C79.1483 30.9755 78.8493 30.9233 78.5244 30.9233C77.3155 30.9233 76.7175 31.7857 76.7175 33.5106C76.7175 35.2355 77.3155 36.0196 78.5244 36.0196C78.9663 36.0196 79.3823 35.9542 79.7722 35.8366C80.1622 35.719 80.5392 35.523 80.9161 35.2747V37.274C80.5392 37.5092 80.1622 37.6791 79.7722 37.7706C79.3823 37.8621 78.9013 37.9143 78.3164 37.9143H78.3424Z" fill="black"/>
<path d="M90.6392 33.4583C90.6392 34.8565 90.2753 35.9411 89.5473 36.7251C88.8194 37.5092 87.7925 37.9012 86.4926 37.9012C85.6737 37.9012 84.9588 37.7183 84.3348 37.3654C83.7109 37.0126 83.2299 36.4899 82.892 35.8104C82.554 35.1309 82.385 34.3469 82.385 33.4583C82.385 32.0601 82.749 30.9755 83.4769 30.1914C84.2048 29.4074 85.2187 29.0284 86.5446 29.0284C87.3635 29.0284 88.0785 29.2114 88.7024 29.5642C89.3264 29.917 89.8073 30.4397 90.1453 31.1062C90.4833 31.7726 90.6522 32.5566 90.6522 33.4583H90.6392ZM84.7508 33.4583C84.7508 34.3077 84.8938 34.948 85.1667 35.3792C85.4397 35.8104 85.8947 36.0326 86.5186 36.0326C87.1426 36.0326 87.5845 35.8104 87.8575 35.3792C88.1305 34.948 88.2605 34.3077 88.2605 33.4583C88.2605 32.6089 88.1175 31.9817 87.8445 31.5504C87.5715 31.1192 87.1166 30.9101 86.4926 30.9101C85.8687 30.9101 85.4267 31.1192 85.1537 31.5374C84.8808 31.9555 84.7378 32.5958 84.7378 33.4452L84.7508 33.4583Z" fill="black"/>
<path d="M100.414 37.7575H98.0875V32.7527C98.0875 32.1385 97.9835 31.6681 97.7625 31.3676C97.5415 31.067 97.1906 30.9102 96.7226 30.9102C96.0727 30.9102 95.6047 31.1323 95.3187 31.5636C95.0328 31.9948 94.8898 32.7266 94.8898 33.7328V37.7575H92.563V29.1984H94.3438L94.6558 30.296H94.7858C95.0458 29.8779 95.3967 29.5643 95.8517 29.3552C96.3066 29.1461 96.8266 29.0416 97.3985 29.0416C98.3864 29.0416 99.1404 29.316 99.6473 29.8517C100.154 30.3875 100.414 31.1716 100.414 32.1777V37.7575Z" fill="black"/>
<path d="M106.394 36.0457C106.797 36.0457 107.291 35.9542 107.85 35.7712V37.5092C107.265 37.7706 106.563 37.9012 105.718 37.9012C104.795 37.9012 104.106 37.666 103.69 37.1956C103.274 36.7252 103.053 36.0195 103.053 35.0656V30.9363H101.935V29.9432L103.209 29.1591L103.885 27.3558H105.367V29.1722H107.746V30.9232H105.367V35.0525C105.367 35.3792 105.458 35.6275 105.64 35.7843C105.822 35.9411 106.069 36.0195 106.381 36.0195L106.394 36.0457Z" fill="black"/>
<path d="M114.336 29.0415C114.648 29.0415 114.908 29.0676 115.116 29.1068L114.947 31.3022C114.765 31.2499 114.531 31.2238 114.258 31.2238C113.517 31.2238 112.945 31.4198 112.529 31.7987C112.113 32.1777 111.905 32.7134 111.905 33.406V37.7575H109.578V29.1983H111.333L111.671 30.6357H111.788C112.048 30.1522 112.412 29.7733 112.854 29.4727C113.296 29.1722 113.79 29.0284 114.323 29.0284L114.336 29.0415Z" fill="black"/>
<path d="M124.397 33.4583C124.397 34.8565 124.033 35.9411 123.305 36.7251C122.577 37.5092 121.55 37.9012 120.25 37.9012C119.432 37.9012 118.717 37.7183 118.093 37.3654C117.469 37.0126 116.988 36.4899 116.65 35.8104C116.312 35.1309 116.143 34.3469 116.143 33.4583C116.143 32.0601 116.507 30.9755 117.235 30.1914C117.963 29.4074 118.977 29.0284 120.302 29.0284C121.121 29.0284 121.836 29.2114 122.46 29.5642C123.084 29.917 123.565 30.4397 123.903 31.1062C124.241 31.7726 124.41 32.5566 124.41 33.4583H124.397ZM118.509 33.4583C118.509 34.3077 118.652 34.948 118.925 35.3792C119.198 35.8104 119.652 36.0326 120.276 36.0326C120.9 36.0326 121.342 35.8104 121.615 35.3792C121.888 34.948 122.018 34.3077 122.018 33.4583C122.018 32.6089 121.875 31.9817 121.602 31.5504C121.329 31.1192 120.874 30.9101 120.25 30.9101C119.626 30.9101 119.185 31.1192 118.912 31.5374C118.639 31.9555 118.496 32.5958 118.496 33.4452L118.509 33.4583Z" fill="black"/>
<path d="M128.648 37.7575H126.321V25.84H128.648V37.7575Z" fill="black"/>
<path d="M17.7564 1.96011L0.533028 31.9629C-0.961833 34.5763 0.909993 37.8432 3.91271 37.8432H38.3725C41.3752 37.8432 43.2471 34.5763 41.7522 31.9629L24.5158 1.96011C23.0209 -0.65337 19.2643 -0.65337 17.7564 1.96011Z" fill="#F9B233"/>
<path d="M18.9392 31.6623C18.9392 30.8783 19.1472 30.2772 19.5632 29.8852C19.9791 29.4801 20.5901 29.2841 21.396 29.2841C22.2019 29.2841 22.7609 29.4931 23.1898 29.8982C23.6188 30.3164 23.8268 30.9044 23.8268 31.6623C23.8268 32.4202 23.6058 32.9821 23.1898 33.4134C22.7609 33.8446 22.1629 34.0537 21.396 34.0537C20.6291 34.0537 20.0051 33.8446 19.5762 33.4264C19.1472 33.0083 18.9392 32.4202 18.9392 31.6623ZM23.1118 26.8666H19.7061L18.9912 13.1458H23.8268L23.1118 26.8666Z" fill="#1D1D1B"/>
</g>
<defs>
<clipPath id="clip0_7_802">
<rect width="129" height="38" fill="white"/>
</clipPath>
</defs>
</svg>
