<svg width="170" height="50" viewBox="0 0 170 50" fill="none" xmlns="http://www.w3.org/2000/svg">
<g clip-path="url(#clip0_1_3)">
<path d="M60.0242 24.8968L58.9621 21.3893H53.6175L52.5554 24.8968H49.1979L54.3712 10.11H58.1741L63.3817 24.8968H60.0242ZM58.2255 18.7758C57.2491 15.5949 56.6838 13.8067 56.5639 13.3941C56.444 12.9814 56.3583 12.6548 56.2898 12.414C56.0671 13.2737 55.4333 15.4058 54.3884 18.793H58.2084L58.2255 18.7758Z" fill="white"/>
<path d="M77.1715 10.1616V19.6871C77.1715 20.7703 76.9317 21.7332 76.4521 22.5413C75.9724 23.3494 75.2701 23.9856 74.345 24.4326C73.42 24.8797 72.3408 25.086 71.0903 25.086C69.206 25.086 67.7328 24.6046 66.6878 23.6245C65.6429 22.6444 65.129 21.3205 65.129 19.6355V10.1616H68.2296V19.1713C68.2296 20.3061 68.4523 21.1314 68.9148 21.6644C69.3773 22.1974 70.131 22.4553 71.176 22.4553C72.2209 22.4553 72.9232 22.1802 73.3857 21.6472C73.8483 21.1142 74.071 20.2717 74.071 19.1369V10.1616H77.1715Z" fill="white"/>
<path d="M86.4218 24.8968H83.3041V12.7751H79.3128V10.1788H90.396V12.7751H86.4047V24.8968H86.4218Z" fill="white"/>
<path d="M105.984 17.5206C105.984 19.9622 105.385 21.8363 104.186 23.1431C102.987 24.4498 101.257 25.1032 99.0125 25.1032C96.7684 25.1032 95.0383 24.4498 93.8392 23.1431C92.6401 21.8363 92.0405 19.945 92.0405 17.5034C92.0405 15.0619 92.6401 13.1878 93.8563 11.881C95.0726 10.5743 96.8027 9.93811 99.0468 9.93811C101.291 9.93811 103.021 10.5915 104.22 11.8982C105.419 13.205 106.019 15.0791 106.019 17.5206H105.984ZM95.2781 17.5206C95.2781 19.1713 95.5865 20.4092 96.2031 21.2345C96.8198 22.0598 97.762 22.4897 98.9954 22.4897C101.479 22.4897 102.713 20.8391 102.713 17.5206C102.713 14.2022 101.479 12.5516 99.0125 12.5516C97.7791 12.5516 96.837 12.9642 96.2203 13.8067C95.6036 14.6493 95.2781 15.8872 95.2781 17.5378V17.5206Z" fill="white"/>
<path d="M115.235 24.8968L111.706 13.3425H111.62C111.74 15.6981 111.809 17.2627 111.809 18.0537V24.8968H109.034V10.1616H113.265L116.742 21.4237H116.811L120.494 10.1616H124.725V24.8968H121.83V17.9333C121.83 17.6066 121.83 17.2284 121.83 16.7985C121.83 16.3687 121.881 15.2339 121.967 13.3769H121.881L118.096 24.914H115.252L115.235 24.8968Z" fill="white"/>
<path d="M141.735 17.5206C141.735 19.9622 141.136 21.8363 139.937 23.1431C138.737 24.4498 137.007 25.1032 134.763 25.1032C132.519 25.1032 130.789 24.4498 129.59 23.1431C128.391 21.8363 127.791 19.945 127.791 17.5034C127.791 15.0619 128.391 13.1878 129.607 11.881C130.823 10.5743 132.553 9.93811 134.797 9.93811C137.042 9.93811 138.772 10.5915 139.971 11.8982C141.17 13.205 141.769 15.0791 141.769 17.5206H141.735ZM131.029 17.5206C131.029 19.1713 131.337 20.4092 131.954 21.2345C132.571 22.0598 133.513 22.4897 134.746 22.4897C137.23 22.4897 138.463 20.8391 138.463 17.5206C138.463 14.2022 137.23 12.5516 134.763 12.5516C133.53 12.5516 132.588 12.9642 131.971 13.8067C131.354 14.6493 131.029 15.8872 131.029 17.5378V17.5206Z" fill="white"/>
<path d="M150.437 24.8968H147.32V12.7751H143.328V10.1788H154.412V12.7751H150.42V24.8968H150.437Z" fill="white"/>
<path d="M170 17.5206C170 19.9622 169.4 21.8363 168.201 23.1431C167.002 24.4498 165.272 25.1032 163.028 25.1032C160.784 25.1032 159.054 24.4498 157.855 23.1431C156.656 21.8363 156.056 19.945 156.056 17.5034C156.056 15.0619 156.656 13.1878 157.872 11.881C159.088 10.5743 160.818 9.93811 163.062 9.93811C165.306 9.93811 167.036 10.5915 168.236 11.8982C169.435 13.205 170.034 15.0791 170.034 17.5206H170ZM159.294 17.5206C159.294 19.1713 159.602 20.4092 160.219 21.2345C160.835 22.0598 161.778 22.4897 163.011 22.4897C165.495 22.4897 166.728 20.8391 166.728 17.5206C166.728 14.2022 165.495 12.5516 163.028 12.5516C161.795 12.5516 160.852 12.9642 160.236 13.8067C159.619 14.6493 159.294 15.8872 159.294 17.5378V17.5206Z" fill="white"/>
<path d="M103.242 49.8872C99.7473 49.8872 98 47.9615 98 44.11C98 42.2015 98.4796 40.74 99.4218 39.7256C100.364 38.7111 101.734 38.2125 103.499 38.2125C104.801 38.2125 105.966 38.4704 106.993 38.9863L106.085 41.359C105.606 41.1699 105.16 40.9979 104.732 40.8776C104.304 40.7572 103.91 40.6885 103.482 40.6885C101.889 40.6885 101.101 41.8233 101.101 44.0929C101.101 46.3625 101.889 47.3941 103.482 47.3941C104.064 47.3941 104.612 47.3081 105.126 47.1534C105.64 46.9986 106.137 46.7407 106.634 46.414V49.0447C106.137 49.3542 105.64 49.5777 105.126 49.6981C104.612 49.8184 103.978 49.8872 103.208 49.8872H103.242Z" fill="white"/>
<path d="M119.447 44.0241C119.447 45.8638 118.967 47.2909 118.008 48.3226C117.049 49.3542 115.695 49.87 113.982 49.87C112.903 49.87 111.961 49.6293 111.139 49.1651C110.317 48.7008 109.683 48.0131 109.237 47.119C108.792 46.2249 108.569 45.1933 108.569 44.0241C108.569 42.1843 109.049 40.7572 110.008 39.7256C110.968 38.694 112.304 38.1953 114.051 38.1953C115.13 38.1953 116.072 38.436 116.895 38.9003C117.717 39.3645 118.351 40.0523 118.796 40.9292C119.241 41.8061 119.464 42.8377 119.464 44.0241H119.447ZM111.687 44.0241C111.687 45.1417 111.875 45.9842 112.235 46.5516C112.595 47.119 113.194 47.4113 114.017 47.4113C114.839 47.4113 115.421 47.119 115.781 46.5516C116.141 45.9842 116.312 45.1417 116.312 44.0241C116.312 42.9065 116.124 42.0812 115.764 41.5138C115.404 40.9464 114.805 40.6713 113.982 40.6713C113.16 40.6713 112.578 40.9464 112.218 41.4966C111.858 42.0468 111.67 42.8893 111.67 44.0069L111.687 44.0241Z" fill="white"/>
<path d="M132.329 49.6809H129.263V43.0956C129.263 42.2875 129.126 41.6685 128.834 41.273C128.543 40.8776 128.081 40.6713 127.464 40.6713C126.607 40.6713 125.991 40.9636 125.614 41.531C125.237 42.0984 125.049 43.0612 125.049 44.3851V49.6809H121.982V38.4188H124.329L124.74 39.8631H124.912C125.254 39.3129 125.717 38.9003 126.316 38.6252C126.916 38.3501 127.601 38.2125 128.355 38.2125C129.657 38.2125 130.65 38.5736 131.318 39.2785C131.986 39.9835 132.329 41.0151 132.329 42.3391V49.6809Z" fill="white"/>
<path d="M140.209 47.4285C140.74 47.4285 141.391 47.3081 142.127 47.0674V49.3542C141.357 49.6981 140.431 49.87 139.318 49.87C138.102 49.87 137.194 49.5605 136.646 48.9415C136.098 48.3226 135.806 47.3941 135.806 46.1389V40.7056H134.333V39.3989L136.012 38.3673L136.903 35.9945H138.855V38.3844H141.99V40.6884H138.855V46.1217C138.855 46.5516 138.975 46.8783 139.215 47.0846C139.455 47.2909 139.781 47.3941 140.192 47.3941L140.209 47.4285Z" fill="white"/>
<path d="M150.675 38.2125C151.086 38.2125 151.429 38.2469 151.703 38.2985L151.48 41.1871C151.241 41.1183 150.932 41.0839 150.573 41.0839C149.596 41.0839 148.842 41.3418 148.294 41.8404C147.746 42.3391 147.472 43.044 147.472 43.9553V49.6809H144.406V38.4188H146.718L147.164 40.3102H147.318C147.66 39.674 148.14 39.1754 148.722 38.7799C149.305 38.3845 149.956 38.1953 150.658 38.1953L150.675 38.2125Z" fill="white"/>
<path d="M163.934 44.0241C163.934 45.8638 163.454 47.2909 162.495 48.3226C161.536 49.3542 160.183 49.87 158.47 49.87C157.39 49.87 156.448 49.6293 155.626 49.1651C154.804 48.7008 154.17 48.0131 153.725 47.119C153.279 46.2249 153.056 45.1933 153.056 44.0241C153.056 42.1843 153.536 40.7572 154.495 39.7256C155.455 38.694 156.791 38.1953 158.538 38.1953C159.617 38.1953 160.559 38.436 161.382 38.9003C162.204 39.3645 162.838 40.0523 163.283 40.9292C163.729 41.8061 163.951 42.8377 163.951 44.0241H163.934ZM156.174 44.0241C156.174 45.1417 156.363 45.9842 156.722 46.5516C157.082 47.119 157.682 47.4113 158.504 47.4113C159.326 47.4113 159.909 47.119 160.268 46.5516C160.628 45.9842 160.799 45.1417 160.799 44.0241C160.799 42.9065 160.611 42.0812 160.251 41.5138C159.891 40.9464 159.292 40.6713 158.47 40.6713C157.647 40.6713 157.065 40.9464 156.705 41.4966C156.345 42.0468 156.157 42.8893 156.157 44.0069L156.174 44.0241Z" fill="white"/>
<path d="M169.536 49.6809H166.469V34H169.536V49.6809Z" fill="white"/>
<path d="M23.3999 2.57909L0.702445 42.0564C-1.26753 45.4952 1.19922 49.7937 5.15629 49.7937H50.5684C54.5255 49.7937 56.9922 45.4952 55.0223 42.0564L32.3076 2.57909C30.3377 -0.859697 25.387 -0.859697 23.3999 2.57909Z" fill="#F9B233"/>
<path d="M24.9587 41.6609C24.9587 40.6293 25.2328 39.8384 25.7809 39.3226C26.3291 38.7896 27.1342 38.5316 28.1963 38.5316C29.2584 38.5316 29.995 38.8067 30.5603 39.3398C31.1255 39.89 31.3996 40.6637 31.3996 41.6609C31.3996 42.6582 31.1084 43.3975 30.5603 43.9649C29.995 44.5323 29.207 44.8074 28.1963 44.8074C27.1856 44.8074 26.3634 44.5323 25.7981 43.9821C25.2328 43.4319 24.9587 42.6582 24.9587 41.6609ZM30.4575 35.3508H25.9694L25.0272 17.2971H31.3996L30.4575 35.3508Z" fill="#1D1D1B"/>
</g>
<defs>
<clipPath id="clip0_1_3">
<rect width="170" height="50" fill="white"/>
</clipPath>
</defs>
</svg>
