<svg width="24" height="24" viewBox="0 0 24 24" fill="none" xmlns="http://www.w3.org/2000/svg">
<path d="M21 0H3C1.34531 0 0 1.34531 0 3V16.5C0 18.1547 1.34531 19.5 3 19.5H7.5V23.4375C7.5 23.7703 7.77187 24 8.0625 24C8.175 24 8.29219 23.9672 8.39531 23.8875L14.25 19.5H21C22.6547 19.5 24 18.1547 24 16.5V3C24 1.34531 22.6547 0 21 0ZM21.75 16.5C21.75 16.9125 21.4125 17.25 21 17.25H13.5L12.9 17.7L9.75 20.0625V17.25H3C2.5875 17.25 2.25 16.9125 2.25 16.5V3C2.25 2.5875 2.5875 2.25 3 2.25H21C21.4125 2.25 21.75 2.5875 21.75 3V16.5Z" fill="black"/>
</svg>
