<svg width="33" height="20" viewBox="0 0 33 20" fill="none" xmlns="http://www.w3.org/2000/svg">
<path d="M16.5 4.16667C13.7662 4.16667 11.55 6.77812 11.55 10C11.55 13.2219 13.7662 15.8333 16.5 15.8333C19.2338 15.8333 21.45 13.2224 21.45 10C21.45 6.7776 19.2338 4.16667 16.5 4.16667ZM18.5625 12.9167C18.5625 13.1469 18.3779 13.3333 18.15 13.3333H14.85C14.6221 13.3333 14.4375 13.1469 14.4375 12.9167V12.0833C14.4375 11.8531 14.6221 11.6667 14.85 11.6667H15.675V8.77917L15.6508 8.79531C15.4615 8.92292 15.2058 8.87135 15.0795 8.68021L14.6216 7.98646C14.4952 7.79531 14.5463 7.53698 14.7355 7.40937L15.526 6.87656C15.7291 6.73958 15.9679 6.66667 16.2123 6.66667H16.9125C17.1404 6.66667 17.325 6.85312 17.325 7.08333V11.6667H18.15C18.3779 11.6667 18.5625 11.8531 18.5625 12.0833V12.9167ZM31.35 0H1.65C0.738891 0 0 0.746354 0 1.66667V18.3333C0 19.2536 0.738891 20 1.65 20H31.35C32.2611 20 33 19.2536 33 18.3333V1.66667C33 0.746354 32.2611 0 31.35 0ZM30.525 14.1667C28.7023 14.1667 27.225 15.6589 27.225 17.5H5.775C5.775 15.6589 4.29773 14.1667 2.475 14.1667V5.83333C4.29773 5.83333 5.775 4.34115 5.775 2.5H27.225C27.225 4.34115 28.7023 5.83333 30.525 5.83333V14.1667Z" fill="black"/>
</svg>
