<svg width="56" height="50" viewBox="0 0 56 50" fill="none" xmlns="http://www.w3.org/2000/svg">
<path d="M23.39 2.57909L0.692466 42.0564C-1.27751 45.4952 1.18924 49.7937 5.14632 49.7937H50.5585C54.5155 49.7937 56.9823 45.4952 55.0123 42.0564L32.2977 2.57909C30.3277 -0.859697 25.3771 -0.859697 23.39 2.57909Z" fill="#F9B233"/>
<g clip-path="url(#clip0_114_6)">
<path d="M31.7578 30.4572L29.6224 34.8945C29.3646 35.4346 28.617 35.4168 28.3806 34.8677L25.9359 29.2295L24.6469 32.4303H20.6038L28.4451 40.7558C28.7502 41.0817 29.2443 41.0817 29.5493 40.7558L37.395 32.4303H32.7073L31.7578 30.4572ZM38.3531 22.8727L38.25 22.7611C36.0372 20.413 32.4152 20.413 30.1981 22.7611L28.9994 24.0378L27.8006 22.7655C25.5878 20.413 21.9615 20.413 19.7487 22.7655L19.6456 22.8727C17.5532 25.0958 17.4629 28.6358 19.332 31.0018H23.7317L25.2742 27.1537C25.5062 26.5779 26.2882 26.5645 26.5374 27.1359L29.038 32.908L31.1434 28.5376C31.3969 28.0108 32.1187 28.0108 32.3722 28.5376L33.5581 31.0018H38.6668C40.5358 28.6358 40.4456 25.0958 38.3531 22.8727Z" fill="black"/>
</g>
<defs>
<clipPath id="clip0_114_6">
<rect width="22" height="20" fill="white" transform="translate(18 21)"/>
</clipPath>
</defs>
</svg>
