<svg width="56" height="50" viewBox="0 0 56 50" fill="none" xmlns="http://www.w3.org/2000/svg">
<path d="M23.39 2.57909L0.692466 42.0564C-1.27751 45.4952 1.18924 49.7937 5.14632 49.7937H50.5585C54.5155 49.7937 56.9823 45.4952 55.0123 42.0564L32.2977 2.57909C30.3277 -0.859697 25.3771 -0.859697 23.39 2.57909Z" fill="#F9B233"/>
<g clip-path="url(#clip0_114_5)">
<path d="M38.7044 40.1797C38.6532 40.4173 38.4182 40.6524 38.1797 40.7035C36.7966 41 35.7133 41 34.6348 41C30.1991 41 27.5389 38.6281 25.5529 35.5H21.0752C20.3726 35.4991 19.5472 34.9895 19.2322 34.3622L17.1083 30.116C17.0425 29.9712 17.006 29.8148 17 29.6562C17 29.0865 17.4619 28.625 18.0317 28.625H22.4923L21.5268 27.6595C21.0382 27.1714 20.9682 26.2733 21.5268 25.7152L23.7139 23.5276C24.1934 23.0468 25.0957 22.9621 25.6595 23.5276L26.625 24.4931V20.0312C26.625 19.4615 27.0869 19 27.6567 19C27.8157 19.006 27.9716 19.0425 28.1169 19.1083L32.3592 21.2305C32.9878 21.5442 33.4983 22.3692 33.4983 23.0721V27.5598C36.6178 29.5497 38.9996 32.218 38.9996 36.6301C39.0034 37.7129 39.003 38.7961 38.7044 40.1797Z" fill="black"/>
</g>
<defs>
<clipPath id="clip0_114_5">
<rect width="22" height="22" fill="white" transform="matrix(1 0 0 -1 17 41)"/>
</clipPath>
</defs>
</svg>
