<svg width="16" height="16" viewBox="0 0 16 16" fill="none" xmlns="http://www.w3.org/2000/svg">
<g clip-path="url(#clip0_49_612)">
<path d="M13.0008 6.49911C13.0008 7.93329 12.5351 9.25811 11.7507 10.333L15.7072 14.2918C16.0978 14.6824 16.0978 15.3167 15.7072 15.7072C15.3165 16.0978 14.6821 16.0978 14.2915 15.7072L10.335 11.7484C9.25992 12.5358 7.93484 12.9982 6.50038 12.9982C2.90955 12.9982 0 10.0892 0 6.49911C0 2.90898 2.90955 0 6.50038 0C10.0912 0 13.0008 2.90898 13.0008 6.49911ZM9.00053 5.49925C9.00053 4.11819 7.88171 2.99959 6.50038 2.99959C5.11905 2.99959 4.00023 4.11819 4.00023 5.49925C4.00023 7.02404 5.45344 8.98627 6.14411 9.82991C6.33162 10.058 6.66914 10.058 6.85353 9.82991C7.54419 8.98627 8.9974 7.02404 8.9974 5.49925H9.00053ZM5.50032 5.49925C5.50032 4.94714 5.94816 4.49938 6.50038 4.49938C7.0526 4.49938 7.50044 4.94714 7.50044 5.49925C7.50044 6.05136 7.0526 6.49911 6.50038 6.49911C5.94816 6.49911 5.50032 6.05136 5.50032 5.49925Z" fill="black"/>
</g>
<defs>
<clipPath id="clip0_49_612">
<rect width="16" height="16" fill="white"/>
</clipPath>
</defs>
</svg>
