<svg width="77" height="77" viewBox="0 0 77 77" fill="none" xmlns="http://www.w3.org/2000/svg">
<rect x="38.1838" y="0.707107" width="53" height="53" rx="3.5" transform="rotate(45 38.1838 0.707107)" fill="white" stroke="black"/>
<rect x="38" y="10.7071" width="38.598" height="38.598" rx="3.5" transform="rotate(45 38 10.7071)" fill="#F9B233" stroke="black"/>
<g clip-path="url(#clip0_101_2)">
<path d="M31.7 38C33.6298 38 35.2 36.5046 35.2 34.6667C35.2 32.8288 33.6298 31.3333 31.7 31.3333C29.7702 31.3333 28.2 32.8288 28.2 34.6667C28.2 36.5046 29.7702 38 31.7 38ZM47.1 32.6667H37.3C36.9132 32.6667 36.6 32.965 36.6 33.3333V39.3333H26.8V30.6667C26.8 30.2983 26.4867 30 26.1 30H24.7C24.3132 30 24 30.2983 24 30.6667V45.3333C24 45.7017 24.3132 46 24.7 46H26.1C26.4867 46 26.8 45.7017 26.8 45.3333V43.3333H49.2V45.3333C49.2 45.7017 49.5133 46 49.9 46H51.3C51.6868 46 52 45.7017 52 45.3333V37.3333C52 34.7558 49.8064 32.6667 47.1 32.6667Z" fill="black"/>
</g>
<defs>
<clipPath id="clip0_101_2">
<rect width="28" height="16" fill="white" transform="translate(24 30)"/>
</clipPath>
</defs>
</svg>
