<svg width="77" height="77" viewBox="0 0 77 77" fill="none" xmlns="http://www.w3.org/2000/svg">
<rect x="38.1838" y="0.707107" width="53" height="53" rx="3.5" transform="rotate(45 38.1838 0.707107)" fill="white" stroke="black"/>
<rect x="38" y="10.7071" width="38.598" height="38.598" rx="3.5" transform="rotate(45 38 10.7071)" fill="#F9B233" stroke="black"/>
<g clip-path="url(#clip0_101_4)">
<path d="M29.7151 36.3507L29.1329 38.5243C28.9918 39.0516 28.9628 39.5972 29.02 40.1363L27.37 41.4947C27.062 41.7483 26.6055 41.4745 26.6847 41.0836L27.4084 37.4893C27.4581 37.2427 27.2837 37.0074 27.0334 36.9835L23.3838 36.6296C22.9868 36.5912 22.8574 36.0751 23.1897 35.8543L26.2436 33.8247C26.4527 33.6854 26.4958 33.3958 26.3364 33.2017L24.0063 30.37C23.7527 30.0621 24.0264 29.606 24.4178 29.6847L28.0122 30.4085C28.2587 30.4582 28.494 30.2838 28.5184 30.0335L28.8723 26.3839C28.9107 25.9864 29.4268 25.8575 29.6481 26.1898L31.6777 29.2432C31.8169 29.4522 32.1066 29.4954 32.3007 29.336L35.1319 27.0059C35.4399 26.7523 35.8959 27.026 35.8172 27.417L35.2861 30.0494C35.1591 30.1924 35.0316 30.3349 34.9153 30.49L33.4083 32.5042L32.9063 33.1754C31.3721 33.5861 30.1323 34.794 29.7151 36.3507ZM52.8977 42.562L52.3155 44.7351C52.1688 45.2826 51.8758 45.748 51.4929 46.1113C51.3654 46.2318 51.228 46.3419 51.0823 46.4394L50.4265 48.8876C50.3731 49.0878 50.2812 49.2673 50.1617 49.4211C49.8021 49.8823 49.1895 50.1092 48.5895 49.9484L47.1406 49.5603C46.3405 49.3461 45.8656 48.5234 46.0798 47.7233L46.468 46.2744L34.8769 43.1685L34.4888 44.6174C34.2746 45.4176 33.4519 45.8924 32.6518 45.6782L31.2029 45.2901C30.6029 45.1293 30.1857 44.6263 30.1051 44.0474C30.0784 43.8543 30.0887 43.6527 30.1421 43.4531L30.7979 41.0048C30.7206 40.8473 30.6563 40.6833 30.6062 40.515C30.4562 40.0092 30.4351 39.4594 30.5818 38.9119L31.164 36.7383C31.4129 35.8102 32.0715 35.1057 32.8932 34.7598C33.1693 34.6435 33.4618 34.569 33.7599 34.5385L34.6097 33.4028L36.1167 31.3886C36.2784 31.1725 36.4537 30.9714 36.6417 30.7867C37.0167 30.4169 37.44 30.1099 37.8951 29.8722C38.1229 29.7532 38.3587 29.6515 38.6006 29.568C39.0848 29.4002 39.5939 29.3041 40.1118 29.2849C40.6298 29.2657 41.1576 29.3233 41.6788 29.463L47.4294 31.0038C47.9506 31.1435 48.4362 31.3572 48.8754 31.6333C49.5307 32.0448 50.0862 32.5975 50.5015 33.2504C50.9149 33.9011 51.1877 34.6492 51.2834 35.4531L51.5815 37.951L51.7498 39.3595C52.2363 39.7111 52.6076 40.1995 52.8157 40.7625C53.0215 41.3194 53.0636 41.9432 52.8977 42.562ZM34.9805 36.9849C34.111 36.7519 33.3769 37.1743 33.1444 38.041C32.9119 38.9077 33.3371 39.6403 34.2061 39.8733C35.0756 40.1063 36.3408 40.6003 36.5728 39.7336C36.8053 38.8669 35.8495 37.2179 34.9805 36.9849ZM48.6026 38.3053L48.3045 35.8074C48.2773 35.5792 48.2159 35.3607 48.1254 35.1578C47.8536 34.5489 47.3192 34.0792 46.6527 33.9006L40.9021 32.3598C40.0134 32.1217 39.0693 32.4489 38.5181 33.1853L37.0111 35.1995L45.0735 37.3594L48.6026 38.3053ZM49.4693 40.867C48.5998 40.6341 46.9475 41.5847 46.7155 42.4509C46.4834 43.3176 47.8259 43.5224 48.6954 43.7554C49.5649 43.9884 50.299 43.566 50.5315 42.6993C50.7635 41.8331 50.3388 41.1 49.4693 40.867Z" fill="black"/>
</g>
<defs>
<clipPath id="clip0_101_4">
<rect width="30" height="24" fill="white" transform="translate(23 26)"/>
</clipPath>
</defs>
</svg>
