<svg width="28" height="22" viewBox="0 0 28 22" fill="none" xmlns="http://www.w3.org/2000/svg">
<path d="M26.6 0H7C6.22694 0 5.6 0.615742 5.6 1.375V5.5H12.6V2.75H21V16.5H26.6C27.3731 16.5 28 15.8843 28 15.125V1.375C28 0.615742 27.3731 0 26.6 0ZM10.15 4.42578C10.15 4.63934 9.97369 4.8125 9.75625 4.8125H8.44375C8.22631 4.8125 8.05 4.63934 8.05 4.42578V3.13672C8.05 2.92316 8.22631 2.75 8.44375 2.75H9.75625C9.97369 2.75 10.15 2.92316 10.15 3.13672V4.42578ZM25.55 13.3633C25.55 13.5768 25.3737 13.75 25.1562 13.75H23.8438C23.6263 13.75 23.45 13.5768 23.45 13.3633V12.0742C23.45 11.8607 23.6263 11.6875 23.8438 11.6875H25.1562C25.3737 11.6875 25.55 11.8607 25.55 12.0742V13.3633ZM25.55 8.89453C25.55 9.10809 25.3737 9.28125 25.1562 9.28125H23.8438C23.6263 9.28125 23.45 9.10809 23.45 8.89453V7.60547C23.45 7.39191 23.6263 7.21875 23.8438 7.21875H25.1562C25.3737 7.21875 25.55 7.39191 25.55 7.60547V8.89453ZM25.55 4.42578C25.55 4.63934 25.3737 4.8125 25.1562 4.8125H23.8438C23.6263 4.8125 23.45 4.63934 23.45 4.42578V3.13672C23.45 2.92316 23.6263 2.75 23.8438 2.75H25.1562C25.3737 2.75 25.55 2.92316 25.55 3.13672V4.42578ZM18.2 6.875H1.4C0.626938 6.875 0 7.49074 0 8.25V20.625C0 21.3843 0.626938 22 1.4 22H18.2C18.9731 22 19.6 21.3843 19.6 20.625V8.25C19.6 7.49074 18.9731 6.875 18.2 6.875ZM4.2 9.625C4.97306 9.625 5.6 10.2407 5.6 11C5.6 11.7593 4.97306 12.375 4.2 12.375C3.42694 12.375 2.8 11.7593 2.8 11C2.8 10.2407 3.42694 9.625 4.2 9.625ZM16.8 19.25H2.8V17.875L5.6 15.125L7 16.5L12.6 11L16.8 15.125V19.25Z" fill="#686868"/>
</svg>
