<svg width="29" height="20" viewBox="0 0 29 20" fill="none" xmlns="http://www.w3.org/2000/svg">
<path d="M28.3941 3.12917C28.0606 1.8974 27.0777 0.927083 25.8304 0.597917C23.5688 0 14.5003 0 14.5003 0C14.5003 0 5.43169 0 3.17012 0.598437C1.92225 0.927604 0.939886 1.89792 0.606412 3.12969C0 5.36198 0 10.0203 0 10.0203C0 10.0203 0 14.6786 0.605881 16.9109C0.939355 18.1427 1.92225 19.0724 3.16959 19.4016C5.43116 20 14.4997 20 14.4997 20C14.4997 20 23.5683 20 25.8299 19.4016C27.0777 19.0724 28.0601 18.1427 28.3936 16.9109C28.9995 14.6781 28.9995 10.0203 28.9995 10.0203C28.9995 10.0203 28.9995 5.36198 28.3936 3.12917H28.3941ZM11.534 14.2495V5.79063L19.1137 10.0203L11.534 14.2495Z" fill="white"/>
</svg>
